<svg width="260" height="36" viewBox="0 0 260 36" fill="none" xmlns="http://www.w3.org/2000/svg">
<path d="M0.734304 35.1354V8.9722H7.52287V12.2922H7.67152C7.91928 11.648 8.28266 11.0575 8.76166 10.5207C9.24065 9.97562 9.83527 9.54205 10.5455 9.21996C11.2558 8.88962 12.0816 8.72445 13.0231 8.72445C14.2784 8.72445 15.4718 9.05892 16.6032 9.72786C17.7429 10.3968 18.6678 11.4498 19.3781 12.8868C20.0966 14.3238 20.4558 16.1902 20.4558 18.4861C20.4558 20.6829 20.1131 22.5039 19.4276 23.9492C18.7504 25.3944 17.842 26.4722 16.7023 27.1824C15.5709 27.8926 14.3279 28.2478 12.9735 28.2478C12.0816 28.2478 11.2847 28.1032 10.5827 27.8142C9.88895 27.5169 9.29434 27.1163 8.79882 26.6126C8.31156 26.1005 7.9358 25.5224 7.67152 24.8783H7.57242V35.1354H0.734304ZM7.42376 18.4861C7.42376 19.4111 7.54351 20.2121 7.78301 20.8894C8.03077 21.5583 8.37763 22.0786 8.8236 22.4502C9.27782 22.8136 9.81876 22.9953 10.4464 22.9953C11.0741 22.9953 11.6067 22.8177 12.0444 22.4626C12.4904 22.0992 12.829 21.5831 13.0603 20.9141C13.2998 20.2369 13.4195 19.4276 13.4195 18.4861C13.4195 17.5446 13.2998 16.7394 13.0603 16.0705C12.829 15.3933 12.4904 14.8771 12.0444 14.522C11.6067 14.1586 11.0741 13.9769 10.4464 13.9769C9.81876 13.9769 9.27782 14.1586 8.8236 14.522C8.37763 14.8771 8.03077 15.3933 7.78301 16.0705C7.54351 16.7394 7.42376 17.5446 7.42376 18.4861ZM28.6225 28.2973C27.4085 28.2973 26.3349 28.0991 25.4017 27.7027C24.4767 27.298 23.75 26.6869 23.2214 25.8693C22.6929 25.0517 22.4286 24.0111 22.4286 22.7475C22.4286 21.707 22.6062 20.8192 22.9613 20.0841C23.3164 19.3409 23.8119 18.7339 24.4478 18.2631C25.0837 17.7924 25.8229 17.4331 26.6653 17.1854C27.5159 16.9376 28.4326 16.7766 29.4154 16.7022C30.4807 16.6197 31.3355 16.5206 31.9797 16.4049C32.6321 16.2811 33.1028 16.1118 33.3919 15.897C33.6809 15.6741 33.8254 15.3809 33.8254 15.0175V14.9679C33.8254 14.4724 33.6355 14.0925 33.2556 13.8283C32.8757 13.564 32.3885 13.4318 31.7938 13.4318C31.1414 13.4318 30.6087 13.5764 30.1958 13.8654C29.7911 14.1462 29.5475 14.5798 29.4649 15.1661H23.1719C23.2545 14.0099 23.622 12.9446 24.2744 11.9701C24.9351 10.9873 25.8972 10.2027 27.1608 9.61637C28.4243 9.02176 30.0017 8.72445 31.8929 8.72445C33.2556 8.72445 34.4779 8.88549 35.5598 9.20757C36.6416 9.5214 37.5625 9.96323 38.3223 10.5331C39.082 11.0947 39.6601 11.7553 40.0566 12.5151C40.4612 13.2667 40.6636 14.0843 40.6636 14.9679V28H34.2714V25.3242H34.1228C33.7429 26.0345 33.2804 26.6084 32.7353 27.0461C32.1985 27.4838 31.5832 27.8018 30.8895 28C30.2041 28.1982 29.4484 28.2973 28.6225 28.2973ZM30.8524 23.9863C31.3726 23.9863 31.8599 23.879 32.3141 23.6642C32.7766 23.4495 33.1524 23.1398 33.4414 22.7351C33.7305 22.3305 33.875 21.8391 33.875 21.261V19.6753C33.6933 19.7497 33.4992 19.8199 33.2928 19.8859C33.0946 19.952 32.8798 20.0139 32.6486 20.0718C32.4256 20.1296 32.1861 20.1832 31.9301 20.2328C31.6823 20.2823 31.4222 20.3278 31.1497 20.3691C30.6211 20.4516 30.1875 20.5879 29.8489 20.7779C29.5186 20.9596 29.2708 21.1867 29.1057 21.4592C28.9488 21.7235 28.8703 22.0208 28.8703 22.3511C28.8703 22.8797 29.0561 23.2843 29.4277 23.5651C29.7994 23.8459 30.2743 23.9863 30.8524 23.9863ZM50.769 17.2969V28H43.9309V8.9722H50.4221V12.5895H50.6203C51.0333 11.3837 51.76 10.4381 52.8006 9.75264C53.8494 9.06718 55.0717 8.72445 56.4674 8.72445C57.8136 8.72445 58.9822 9.03414 59.9732 9.65354C60.9725 10.2647 61.7447 11.107 62.2897 12.1807C62.843 13.2543 63.1156 14.4807 63.1073 15.8599V28H56.2692V17.2969C56.2775 16.3554 56.038 15.6162 55.5507 15.0794C55.0717 14.5426 54.4028 14.2742 53.5439 14.2742C52.9823 14.2742 52.4909 14.3981 52.0697 14.6459C51.6568 14.8854 51.3388 15.2322 51.1158 15.6864C50.8929 16.1324 50.7772 16.6692 50.769 17.2969ZM72.6274 23.4908L72.677 15.3644H73.5689L78.1772 8.9722H85.8577L78.1276 18.9321H76.1951L72.6274 23.4908ZM66.483 28V2.6296H73.3211V28H66.483ZM78.2267 28L73.8662 20.4682L78.3258 15.6121L86.0559 28H78.2267ZM92.9404 28.2973C91.7264 28.2973 90.6528 28.0991 89.7196 27.7027C88.7946 27.298 88.0679 26.6869 87.5393 25.8693C87.0108 25.0517 86.7465 24.0111 86.7465 22.7475C86.7465 21.707 86.9241 20.8192 87.2792 20.0841C87.6343 19.3409 88.1298 18.7339 88.7657 18.2631C89.4016 17.7924 90.1408 17.4331 90.9832 17.1854C91.8338 16.9376 92.7505 16.7766 93.7333 16.7022C94.7986 16.6197 95.6534 16.5206 96.2976 16.4049C96.95 16.2811 97.4207 16.1118 97.7098 15.897C97.9988 15.6741 98.1434 15.3809 98.1434 15.0175V14.9679C98.1434 14.4724 97.9534 14.0925 97.5735 13.8283C97.1936 13.564 96.7064 13.4318 96.1117 13.4318C95.4593 13.4318 94.9266 13.5764 94.5137 13.8654C94.109 14.1462 93.8654 14.5798 93.7828 15.1661H87.4898C87.5724 14.0099 87.9399 12.9446 88.5923 11.9701C89.253 10.9873 90.2151 10.2027 91.4787 9.61637C92.7422 9.02176 94.3196 8.72445 96.2109 8.72445C97.5735 8.72445 98.7958 8.88549 99.8777 9.20757C100.96 9.5214 101.88 9.96323 102.64 10.5331C103.4 11.0947 103.978 11.7553 104.374 12.5151C104.779 13.2667 104.981 14.0843 104.981 14.9679V28H98.5893V25.3242H98.4407C98.0608 26.0345 97.5983 26.6084 97.0532 27.0461C96.5164 27.4838 95.9012 27.8018 95.2074 28C94.522 28.1982 93.7663 28.2973 92.9404 28.2973ZM95.1703 23.9863C95.6906 23.9863 96.1778 23.879 96.632 23.6642C97.0945 23.4495 97.4703 23.1398 97.7593 22.7351C98.0484 22.3305 98.1929 21.8391 98.1929 21.261V19.6753C98.0112 19.7497 97.8171 19.8199 97.6107 19.8859C97.4125 19.952 97.1978 20.0139 96.9665 20.0718C96.7435 20.1296 96.504 20.1832 96.248 20.2328C96.0003 20.2823 95.7401 20.3278 95.4676 20.3691C94.939 20.4516 94.5055 20.5879 94.1669 20.7779C93.8365 20.9596 93.5887 21.1867 93.4236 21.4592C93.2667 21.7235 93.1882 22.0208 93.1882 22.3511C93.1882 22.8797 93.374 23.2843 93.7457 23.5651C94.1173 23.8459 94.5922 23.9863 95.1703 23.9863ZM108.249 8.9722H115.087V28.6442C115.087 30.3124 114.736 31.6173 114.034 32.5587C113.34 33.5002 112.366 34.165 111.11 34.5532C109.855 34.9413 108.389 35.1354 106.713 35.1354C106.465 35.1354 106.238 35.1313 106.031 35.123C105.817 35.1148 105.581 35.1024 105.325 35.0859V30.0316C105.49 30.0481 105.635 30.0605 105.759 30.0688C105.874 30.077 105.994 30.0812 106.118 30.0812C106.936 30.0812 107.493 29.9532 107.79 29.6971C108.096 29.4494 108.249 29.0488 108.249 28.4955V8.9722ZM111.668 6.99014C110.743 6.99014 109.95 6.68457 109.289 6.07344C108.629 5.4623 108.298 4.72729 108.298 3.86839C108.298 3.0095 108.629 2.27449 109.289 1.66335C109.95 1.05221 110.743 0.746646 111.668 0.746646C112.601 0.746646 113.394 1.05221 114.046 1.66335C114.707 2.27449 115.037 3.0095 115.037 3.86839C115.037 4.72729 114.707 5.4623 114.046 6.07344C113.394 6.68457 112.601 6.99014 111.668 6.99014ZM130.315 28V2.6296H131.863V17.3588H132.037L145.416 2.6296H147.472L136.459 14.6335L147.373 28H145.44L135.468 15.7484L131.863 19.7373V28H130.315ZM157.364 28.3964C155.795 28.3964 154.399 27.9752 153.177 27.1328C151.954 26.2822 150.992 25.1136 150.29 23.6271C149.588 22.1405 149.237 20.4475 149.237 18.548C149.237 16.6403 149.588 14.9473 150.29 13.469C150.992 11.9825 151.954 10.8139 153.177 9.96323C154.399 9.1126 155.795 8.68728 157.364 8.68728C158.933 8.68728 160.328 9.1126 161.551 9.96323C162.773 10.8139 163.735 11.9825 164.437 13.469C165.139 14.9556 165.49 16.6486 165.49 18.548C165.49 20.4475 165.139 22.1405 164.437 23.6271C163.735 25.1136 162.773 26.2822 161.551 27.1328C160.328 27.9752 158.933 28.3964 157.364 28.3964ZM157.364 26.9966C158.693 26.9966 159.854 26.6208 160.845 25.8693C161.844 25.1178 162.616 24.1019 163.161 22.8219C163.715 21.5418 163.991 20.1172 163.991 18.548C163.991 16.9789 163.715 15.5584 163.161 14.2866C162.608 13.0065 161.836 11.9907 160.845 11.2392C159.854 10.4794 158.693 10.0995 157.364 10.0995C156.034 10.0995 154.874 10.4794 153.883 11.2392C152.892 11.9907 152.119 13.0065 151.566 14.2866C151.013 15.5584 150.736 16.9789 150.736 18.548C150.736 20.1172 151.009 21.5418 151.554 22.8219C152.107 24.1019 152.879 25.1178 153.87 25.8693C154.87 26.6208 156.034 26.9966 157.364 26.9966ZM170.696 28V8.9722H172.17V11.9453H172.307C172.719 10.9708 173.417 10.1903 174.4 9.60399C175.383 9.00937 176.502 8.71206 177.757 8.71206C177.889 8.71206 178.022 8.71206 178.154 8.71206C178.286 8.71206 178.41 8.71619 178.525 8.72445V10.2482C178.426 10.2399 178.306 10.2275 178.166 10.211C178.034 10.1862 177.869 10.1738 177.671 10.1738C176.613 10.1738 175.672 10.4009 174.846 10.8552C174.028 11.3094 173.384 11.937 172.914 12.7381C172.443 13.5309 172.207 14.4394 172.207 15.4635V28H170.696ZM183.899 20.5673L183.874 18.3994H184.27L193.784 8.9722H195.754L187.02 17.6437L186.872 17.7057L183.899 20.5673ZM182.585 28V2.6296H184.097V28H182.585ZM194.218 28L186.19 17.8543L187.28 16.8509L196.15 28H194.218ZM205.274 28.4088C204.175 28.4088 203.168 28.1899 202.251 27.7522C201.343 27.3145 200.612 26.6745 200.059 25.8321C199.513 24.9897 199.241 23.9657 199.241 22.7599C199.241 21.9671 199.381 21.2692 199.662 20.6664C199.943 20.0635 200.376 19.5432 200.963 19.1055C201.549 18.6678 202.301 18.3085 203.217 18.0277C204.134 17.7387 205.228 17.5157 206.5 17.3588C207.466 17.2432 208.329 17.1317 209.089 17.0243C209.849 16.9087 210.444 16.7312 210.873 16.4917C211.311 16.2522 211.53 15.8888 211.53 15.4015V14.6087C211.53 13.2212 211.092 12.1187 210.217 11.3011C209.341 10.4835 208.135 10.0747 206.599 10.0747C205.237 10.0747 204.089 10.3762 203.155 10.979C202.231 11.5737 201.582 12.3417 201.211 13.2832L199.786 12.7505C200.149 11.8421 200.674 11.0864 201.359 10.4835C202.053 9.88065 202.846 9.43056 203.738 9.13325C204.638 8.83594 205.579 8.68728 206.562 8.68728C207.413 8.68728 208.222 8.80703 208.99 9.04653C209.766 9.28603 210.456 9.64941 211.059 10.1367C211.67 10.6239 212.153 11.2474 212.508 12.0072C212.863 12.7588 213.041 13.659 213.041 14.7078V28H211.53V24.5686H211.418C211.088 25.2788 210.634 25.9271 210.056 26.5135C209.486 27.0916 208.796 27.554 207.987 27.9009C207.186 28.2395 206.281 28.4088 205.274 28.4088ZM205.422 27.009C206.612 27.009 207.665 26.7199 208.581 26.1418C209.506 25.5555 210.229 24.7544 210.749 23.7386C211.27 22.7228 211.53 21.5707 211.53 20.2823V17.4827C211.34 17.6479 211.063 17.7965 210.7 17.9286C210.345 18.0525 209.94 18.164 209.486 18.2631C209.04 18.354 208.569 18.4366 208.073 18.5109C207.586 18.5769 207.111 18.6389 206.649 18.6967C205.261 18.8619 204.13 19.1179 203.255 19.4647C202.387 19.8033 201.752 20.2493 201.347 20.8026C200.95 21.356 200.752 22.0249 200.752 22.8095C200.752 24.1061 201.198 25.1301 202.09 25.8817C202.982 26.6332 204.093 27.009 205.422 27.009ZM220.889 2.6296V28H219.377V2.6296H220.889ZM232.187 28.4088C231.088 28.4088 230.081 28.1899 229.164 27.7522C228.255 27.3145 227.525 26.6745 226.971 25.8321C226.426 24.9897 226.154 23.9657 226.154 22.7599C226.154 21.9671 226.294 21.2692 226.575 20.6664C226.856 20.0635 227.289 19.5432 227.876 19.1055C228.462 18.6678 229.213 18.3085 230.13 18.0277C231.047 17.7387 232.141 17.5157 233.413 17.3588C234.379 17.2432 235.242 17.1317 236.002 17.0243C236.762 16.9087 237.356 16.7312 237.786 16.4917C238.224 16.2522 238.442 15.8888 238.442 15.4015V14.6087C238.442 13.2212 238.005 12.1187 237.129 11.3011C236.254 10.4835 235.048 10.0747 233.512 10.0747C232.149 10.0747 231.001 10.3762 230.068 10.979C229.143 11.5737 228.495 12.3417 228.123 13.2832L226.699 12.7505C227.062 11.8421 227.586 11.0864 228.272 10.4835C228.966 9.88065 229.758 9.43056 230.65 9.13325C231.551 8.83594 232.492 8.68728 233.475 8.68728C234.325 8.68728 235.135 8.80703 235.903 9.04653C236.679 9.28603 237.369 9.64941 237.972 10.1367C238.583 10.6239 239.066 11.2474 239.421 12.0072C239.776 12.7588 239.954 13.659 239.954 14.7078V28H238.442V24.5686H238.331C238.001 25.2788 237.546 25.9271 236.968 26.5135C236.398 27.0916 235.709 27.554 234.899 27.9009C234.098 28.2395 233.194 28.4088 232.187 28.4088ZM232.335 27.009C233.524 27.009 234.577 26.7199 235.494 26.1418C236.419 25.5555 237.142 24.7544 237.662 23.7386C238.182 22.7228 238.442 21.5707 238.442 20.2823V17.4827C238.252 17.6479 237.976 17.7965 237.612 17.9286C237.257 18.0525 236.853 18.164 236.398 18.2631C235.952 18.354 235.482 18.4366 234.986 18.5109C234.499 18.5769 234.024 18.6389 233.562 18.6967C232.174 18.8619 231.043 19.1179 230.167 19.4647C229.3 19.8033 228.664 20.2493 228.26 20.8026C227.863 21.356 227.665 22.0249 227.665 22.8095C227.665 24.1061 228.111 25.1301 229.003 25.8817C229.895 26.6332 231.006 27.009 232.335 27.009ZM246.364 28V8.9722H247.863V28H246.364ZM247.12 5.6027C246.79 5.6027 246.501 5.48708 246.253 5.25584C246.013 5.0246 245.894 4.7438 245.894 4.41346C245.894 4.08312 246.013 3.80232 246.253 3.57108C246.492 3.33984 246.781 3.22422 247.12 3.22422C247.45 3.22422 247.735 3.33984 247.975 3.57108C248.223 3.80232 248.347 4.08312 248.347 4.41346C248.347 4.7438 248.227 5.0246 247.987 5.25584C247.748 5.48708 247.459 5.6027 247.12 5.6027Z" fill="white"/>
<path d="M256.571 28.2273C255.87 28.2273 255.269 27.9763 254.767 27.4744C254.265 26.9725 254.014 26.3712 254.014 25.6705C254.014 24.9697 254.265 24.3684 254.767 23.8665C255.269 23.3646 255.87 23.1136 256.571 23.1136C257.272 23.1136 257.873 23.3646 258.375 23.8665C258.877 24.3684 259.128 24.9697 259.128 25.6705C259.128 26.1345 259.009 26.5606 258.773 26.9489C258.545 27.3371 258.237 27.6496 257.849 27.8864C257.47 28.1136 257.044 28.2273 256.571 28.2273Z" fill="#EF0000"/>
</svg>
